<svg width="111" height="36" viewBox="0 0 111 36" fill="none" xmlns="http://www.w3.org/2000/svg">
<g filter="url(#filter0_i_54_41)">
<path d="M18.8372 0.599998V17.64C18.8372 20.7067 17.9838 23.1067 16.2772 24.84C14.5972 26.5467 12.2505 27.4 9.23717 27.4C7.07717 27.4 5.31717 27 3.95717 26.2C2.59717 25.4 1.65051 24.28 1.11717 22.84C0.583839 21.3733 0.490506 19.68 0.837173 17.76L4.95717 17C4.63717 19.2933 4.81051 20.9867 5.47717 22.08C6.14384 23.1467 7.39717 23.68 9.23717 23.68C11.2372 23.68 12.6105 23.1067 13.3572 21.96C14.1305 20.7867 14.5172 19.08 14.5172 16.84V0.599998H18.8372Z" fill="white"/>
<path d="M36.6925 14.16C36.6925 12.8267 36.3192 11.8 35.5725 11.08C34.8525 10.3333 33.8525 9.96 32.5725 9.96C31.3725 9.96 30.3458 10.24 29.4925 10.8C28.6392 11.36 28.0125 12.2667 27.6125 13.52L24.0125 12C24.5192 10.3733 25.5058 9.06667 26.9725 8.08C28.4658 7.09333 30.3858 6.6 32.7325 6.6C34.3325 6.6 35.7458 6.86666 36.9725 7.4C38.1992 7.90667 39.1592 8.68 39.8525 9.72C40.5725 10.76 40.9325 12.0933 40.9325 13.72V22.64C40.9325 23.6267 41.4258 24.12 42.4125 24.12C42.8925 24.12 43.3592 24.0533 43.8125 23.92L43.5725 26.88C42.9592 27.1733 42.1858 27.32 41.2525 27.32C40.3992 27.32 39.6258 27.1733 38.9325 26.88C38.2658 26.56 37.7325 26.0933 37.3325 25.48C36.9592 24.84 36.7725 24.0533 36.7725 23.12V22.84L37.6525 22.8C37.4125 23.84 36.9192 24.7067 36.1725 25.4C35.4258 26.0667 34.5592 26.5733 33.5725 26.92C32.5858 27.24 31.5858 27.4 30.5725 27.4C29.3192 27.4 28.1858 27.2 27.1725 26.8C26.1858 26.4 25.3992 25.8 24.8125 25C24.2525 24.1733 23.9725 23.16 23.9725 21.96C23.9725 20.4667 24.4525 19.24 25.4125 18.28C26.3992 17.32 27.7858 16.6667 29.5725 16.32L37.3325 14.8L37.2925 17.8L31.6525 18.96C30.5325 19.1733 29.6925 19.48 29.1325 19.88C28.5725 20.28 28.2925 20.8667 28.2925 21.64C28.2925 22.3867 28.5725 22.9867 29.1325 23.44C29.7192 23.8667 30.4925 24.08 31.4525 24.08C32.1192 24.08 32.7592 24 33.3725 23.84C34.0125 23.68 34.5858 23.4267 35.0925 23.08C35.5992 22.7067 35.9858 22.24 36.2525 21.68C36.5458 21.0933 36.6925 20.4 36.6925 19.6V14.16Z" fill="white"/>
<path d="M65.6231 2.8L66.3031 6.16C66.2231 6.16 66.1431 6.16 66.0631 6.16C65.9831 6.13333 65.9031 6.12 65.8231 6.12C64.5431 6.12 63.5698 6.4 62.9031 6.96C62.2364 7.49333 61.9031 8.28 61.9031 9.32L59.8231 8.36C59.8231 7.29333 60.0498 6.34667 60.5031 5.52C60.9564 4.66667 61.5964 4 62.4231 3.52C63.2764 3.04 64.2364 2.8 65.3031 2.8C65.3564 2.8 65.4098 2.8 65.4631 2.8C65.5164 2.8 65.5698 2.8 65.6231 2.8ZM59.3031 23.88C61.3298 23.88 62.9031 24.3333 64.0231 25.24C65.1431 26.12 65.7031 27.3467 65.7031 28.92C65.7031 30.3067 65.2631 31.4933 64.3831 32.48C63.5031 33.4933 62.3031 34.2667 60.7831 34.8C59.2898 35.3333 57.5698 35.6 55.6231 35.6C52.3431 35.6 49.9164 35.0933 48.3431 34.08C46.7698 33.0667 45.9831 31.8 45.9831 30.28C45.9831 29.2133 46.3564 28.28 47.1031 27.48C47.8764 26.68 49.1698 26.2267 50.9831 26.12L50.7431 26.76C49.6231 26.52 48.7164 26.0933 48.0231 25.48C47.3564 24.84 47.0231 23.9467 47.0231 22.8C47.0231 21.6533 47.4631 20.68 48.3431 19.88C49.2231 19.08 50.4631 18.6133 52.0631 18.48L54.3031 19.56H53.8231C52.5964 19.6667 51.7298 19.9467 51.2231 20.4C50.7164 20.8533 50.4631 21.36 50.4631 21.92C50.4631 22.5867 50.7031 23.08 51.1831 23.4C51.6898 23.72 52.3964 23.88 53.3031 23.88H59.3031ZM55.6231 32.4C57.0898 32.4 58.2898 32.2533 59.2231 31.96C60.1831 31.6933 60.8898 31.3333 61.3431 30.88C61.8231 30.4533 62.0631 29.9733 62.0631 29.44C62.0631 28.8267 61.8098 28.3333 61.3031 27.96C60.8231 27.5867 59.9431 27.4 58.6631 27.4H52.2231C51.4764 27.4 50.8498 27.5867 50.3431 27.96C49.8364 28.36 49.5831 28.8933 49.5831 29.56C49.5831 30.44 50.1164 31.1333 51.1831 31.64C52.2498 32.1467 53.7298 32.4 55.6231 32.4ZM55.4631 6.6C57.2231 6.6 58.7431 6.88 60.0231 7.44C61.3298 8 62.3298 8.78667 63.0231 9.8C63.7431 10.8133 64.1031 12 64.1031 13.36C64.1031 14.72 63.7431 15.9067 63.0231 16.92C62.3298 17.9333 61.3298 18.72 60.0231 19.28C58.7431 19.84 57.2231 20.12 55.4631 20.12C52.6898 20.12 50.5564 19.5067 49.0631 18.28C47.5964 17.0267 46.8631 15.3867 46.8631 13.36C46.8631 12 47.2231 10.8133 47.9431 9.8C48.6631 8.78667 49.6631 8 50.9431 7.44C52.2498 6.88 53.7564 6.6 55.4631 6.6ZM55.4631 9.6C54.2364 9.6 53.2098 9.94667 52.3831 10.64C51.5831 11.3067 51.1831 12.2133 51.1831 13.36C51.1831 14.5067 51.5831 15.4267 52.3831 16.12C53.2098 16.8133 54.2364 17.16 55.4631 17.16C56.7164 17.16 57.7431 16.8133 58.5431 16.12C59.3698 15.4267 59.7831 14.5067 59.7831 13.36C59.7831 12.2133 59.3698 11.3067 58.5431 10.64C57.7431 9.94667 56.7164 9.6 55.4631 9.6Z" fill="white"/>
<path d="M81.1847 14.16C81.1847 12.8267 80.8113 11.8 80.0647 11.08C79.3447 10.3333 78.3447 9.96 77.0647 9.96C75.8647 9.96 74.838 10.24 73.9847 10.8C73.1313 11.36 72.5047 12.2667 72.1047 13.52L68.5047 12C69.0113 10.3733 69.998 9.06667 71.4647 8.08C72.958 7.09333 74.878 6.6 77.2247 6.6C78.8247 6.6 80.238 6.86666 81.4647 7.4C82.6913 7.90667 83.6513 8.68 84.3447 9.72C85.0647 10.76 85.4247 12.0933 85.4247 13.72V22.64C85.4247 23.6267 85.918 24.12 86.9047 24.12C87.3847 24.12 87.8513 24.0533 88.3047 23.92L88.0647 26.88C87.4513 27.1733 86.678 27.32 85.7447 27.32C84.8913 27.32 84.118 27.1733 83.4247 26.88C82.758 26.56 82.2247 26.0933 81.8247 25.48C81.4513 24.84 81.2647 24.0533 81.2647 23.12V22.84L82.1447 22.8C81.9047 23.84 81.4113 24.7067 80.6647 25.4C79.918 26.0667 79.0513 26.5733 78.0647 26.92C77.078 27.24 76.078 27.4 75.0647 27.4C73.8113 27.4 72.678 27.2 71.6647 26.8C70.678 26.4 69.8913 25.8 69.3047 25C68.7447 24.1733 68.4647 23.16 68.4647 21.96C68.4647 20.4667 68.9447 19.24 69.9047 18.28C70.8913 17.32 72.278 16.6667 74.0647 16.32L81.8247 14.8L81.7847 17.8L76.1447 18.96C75.0247 19.1733 74.1847 19.48 73.6247 19.88C73.0647 20.28 72.7847 20.8667 72.7847 21.64C72.7847 22.3867 73.0647 22.9867 73.6247 23.44C74.2113 23.8667 74.9847 24.08 75.9447 24.08C76.6113 24.08 77.2513 24 77.8647 23.84C78.5047 23.68 79.078 23.4267 79.5847 23.08C80.0913 22.7067 80.478 22.24 80.7447 21.68C81.038 21.0933 81.1847 20.4 81.1847 19.6V14.16Z" fill="white"/>
<path d="M92.4372 27V7H96.2372L96.5172 12.2L95.9572 11.64C96.3305 10.4933 96.8638 9.54667 97.5572 8.8C98.2772 8.02667 99.1172 7.46667 100.077 7.12C101.064 6.77333 102.104 6.6 103.197 6.6C104.611 6.6 105.877 6.88 106.997 7.44C108.144 7.97333 109.051 8.78667 109.717 9.88C110.384 10.9733 110.717 12.36 110.717 14.04V27H106.437V15.36C106.437 13.3867 106.024 12.0267 105.197 11.28C104.397 10.5067 103.384 10.12 102.157 10.12C101.277 10.12 100.424 10.3333 99.5972 10.76C98.7705 11.16 98.0772 11.8133 97.5172 12.72C96.9838 13.6267 96.7172 14.84 96.7172 16.36V27H92.4372Z" fill="white"/>
</g>
<defs>
<filter id="filter0_i_54_41" x="0.632324" y="0.599998" width="110.085" height="39" filterUnits="userSpaceOnUse" color-interpolation-filters="sRGB">
<feFlood flood-opacity="0" result="BackgroundImageFix"/>
<feBlend mode="normal" in="SourceGraphic" in2="BackgroundImageFix" result="shape"/>
<feColorMatrix in="SourceAlpha" type="matrix" values="0 0 0 0 0 0 0 0 0 0 0 0 0 0 0 0 0 0 127 0" result="hardAlpha"/>
<feOffset dy="4"/>
<feGaussianBlur stdDeviation="2"/>
<feComposite in2="hardAlpha" operator="arithmetic" k2="-1" k3="1"/>
<feColorMatrix type="matrix" values="0 0 0 0 0 0 0 0 0 0 0 0 0 0 0 0 0 0 0.25 0"/>
<feBlend mode="normal" in2="shape" result="effect1_innerShadow_54_41"/>
</filter>
</defs>
</svg>
