<svg width="64" height="27" viewBox="0 0 64 27" fill="none" xmlns="http://www.w3.org/2000/svg">
<g filter="url(#filter0_d_53_18)">
<path d="M13.1686 0.800003V9.32C13.1686 10.8533 12.7419 12.0533 11.8886 12.92C11.0486 13.7733 9.87525 14.2 8.36859 14.2C7.28859 14.2 6.40859 14 5.72859 13.6C5.04859 13.2 4.57525 12.64 4.30859 11.92C4.04192 11.1867 3.99525 10.34 4.16859 9.38L6.22859 9C6.06859 10.1467 6.15525 10.9933 6.48859 11.54C6.82192 12.0733 7.44859 12.34 8.36859 12.34C9.36859 12.34 10.0553 12.0533 10.4286 11.48C10.8153 10.8933 11.0086 10.04 11.0086 8.92V0.800003H13.1686Z" fill="white"/>
<path d="M22.0962 7.58C22.0962 6.91334 21.9096 6.4 21.5362 6.04C21.1762 5.66667 20.6762 5.48 20.0362 5.48C19.4362 5.48 18.9229 5.62 18.4962 5.9C18.0696 6.18 17.7562 6.63334 17.5562 7.26L15.7562 6.5C16.0096 5.68667 16.5029 5.03334 17.2362 4.54C17.9829 4.04667 18.9429 3.8 20.1162 3.8C20.9162 3.8 21.6229 3.93334 22.2362 4.2C22.8496 4.45334 23.3296 4.84 23.6762 5.36C24.0362 5.88 24.2162 6.54667 24.2162 7.36V11.82C24.2162 12.3133 24.4629 12.56 24.9562 12.56C25.1962 12.56 25.4296 12.5267 25.6562 12.46L25.5362 13.94C25.2296 14.0867 24.8429 14.16 24.3762 14.16C23.9496 14.16 23.5629 14.0867 23.2162 13.94C22.8829 13.78 22.6162 13.5467 22.4162 13.24C22.2296 12.92 22.1362 12.5267 22.1362 12.06V11.92L22.5762 11.9C22.4562 12.42 22.2096 12.8533 21.8362 13.2C21.4629 13.5333 21.0296 13.7867 20.5362 13.96C20.0429 14.12 19.5429 14.2 19.0362 14.2C18.4096 14.2 17.8429 14.1 17.3362 13.9C16.8429 13.7 16.4496 13.4 16.1562 13C15.8762 12.5867 15.7362 12.08 15.7362 11.48C15.7362 10.7333 15.9762 10.12 16.4562 9.64C16.9496 9.16 17.6429 8.83334 18.5362 8.66L22.4162 7.9L22.3962 9.4L19.5762 9.98C19.0162 10.0867 18.5962 10.24 18.3162 10.44C18.0362 10.64 17.8962 10.9333 17.8962 11.32C17.8962 11.6933 18.0362 11.9933 18.3162 12.22C18.6096 12.4333 18.9962 12.54 19.4762 12.54C19.8096 12.54 20.1296 12.5 20.4362 12.42C20.7562 12.34 21.0429 12.2133 21.2962 12.04C21.5496 11.8533 21.7429 11.62 21.8762 11.34C22.0229 11.0467 22.0962 10.7 22.0962 10.3V7.58Z" fill="white"/>
<path d="M36.5616 1.9L36.9016 3.58C36.8616 3.58 36.8216 3.58 36.7816 3.58C36.7416 3.56667 36.7016 3.56 36.6616 3.56C36.0216 3.56 35.5349 3.7 35.2016 3.98C34.8682 4.24667 34.7016 4.64 34.7016 5.16L33.6616 4.68C33.6616 4.14667 33.7749 3.67334 34.0016 3.26C34.2282 2.83334 34.5482 2.5 34.9616 2.26C35.3882 2.02 35.8682 1.9 36.4016 1.9C36.4282 1.9 36.4549 1.9 36.4816 1.9C36.5082 1.9 36.5349 1.9 36.5616 1.9ZM33.4016 12.44C34.4149 12.44 35.2016 12.6667 35.7616 13.12C36.3216 13.56 36.6016 14.1733 36.6016 14.96C36.6016 15.6533 36.3816 16.2467 35.9416 16.74C35.5016 17.2467 34.9016 17.6333 34.1416 17.9C33.3949 18.1667 32.5349 18.3 31.5616 18.3C29.9216 18.3 28.7082 18.0467 27.9216 17.54C27.1349 17.0333 26.7416 16.4 26.7416 15.64C26.7416 15.1067 26.9282 14.64 27.3016 14.24C27.6882 13.84 28.3349 13.6133 29.2416 13.56L29.1216 13.88C28.5616 13.76 28.1082 13.5467 27.7616 13.24C27.4282 12.92 27.2616 12.4733 27.2616 11.9C27.2616 11.3267 27.4816 10.84 27.9216 10.44C28.3616 10.04 28.9816 9.80667 29.7816 9.74L30.9016 10.28H30.6616C30.0482 10.3333 29.6149 10.4733 29.3616 10.7C29.1082 10.9267 28.9816 11.18 28.9816 11.46C28.9816 11.7933 29.1016 12.04 29.3416 12.2C29.5949 12.36 29.9482 12.44 30.4016 12.44H33.4016ZM31.5616 16.7C32.2949 16.7 32.8949 16.6267 33.3616 16.48C33.8416 16.3467 34.1949 16.1667 34.4216 15.94C34.6616 15.7267 34.7816 15.4867 34.7816 15.22C34.7816 14.9133 34.6549 14.6667 34.4016 14.48C34.1616 14.2933 33.7216 14.2 33.0816 14.2H29.8616C29.4882 14.2 29.1749 14.2933 28.9216 14.48C28.6682 14.68 28.5416 14.9467 28.5416 15.28C28.5416 15.72 28.8082 16.0667 29.3416 16.32C29.8749 16.5733 30.6149 16.7 31.5616 16.7ZM31.4816 3.8C32.3616 3.8 33.1216 3.94 33.7616 4.22C34.4149 4.5 34.9149 4.89334 35.2616 5.4C35.6216 5.90667 35.8016 6.5 35.8016 7.18C35.8016 7.86 35.6216 8.45334 35.2616 8.96C34.9149 9.46667 34.4149 9.86 33.7616 10.14C33.1216 10.42 32.3616 10.56 31.4816 10.56C30.0949 10.56 29.0282 10.2533 28.2816 9.64C27.5482 9.01334 27.1816 8.19334 27.1816 7.18C27.1816 6.5 27.3616 5.90667 27.7216 5.4C28.0816 4.89334 28.5816 4.5 29.2216 4.22C29.8749 3.94 30.6282 3.8 31.4816 3.8ZM31.4816 5.3C30.8682 5.3 30.3549 5.47334 29.9416 5.82C29.5416 6.15334 29.3416 6.60667 29.3416 7.18C29.3416 7.75334 29.5416 8.21334 29.9416 8.56C30.3549 8.90667 30.8682 9.08 31.4816 9.08C32.1082 9.08 32.6216 8.90667 33.0216 8.56C33.4349 8.21334 33.6416 7.75334 33.6416 7.18C33.6416 6.60667 33.4349 6.15334 33.0216 5.82C32.6216 5.47334 32.1082 5.3 31.4816 5.3Z" fill="white"/>
<path d="M44.3423 7.58C44.3423 6.91334 44.1557 6.4 43.7823 6.04C43.4223 5.66667 42.9223 5.48 42.2823 5.48C41.6823 5.48 41.169 5.62 40.7423 5.9C40.3157 6.18 40.0023 6.63334 39.8023 7.26L38.0023 6.5C38.2557 5.68667 38.749 5.03334 39.4823 4.54C40.229 4.04667 41.189 3.8 42.3623 3.8C43.1623 3.8 43.869 3.93334 44.4823 4.2C45.0957 4.45334 45.5757 4.84 45.9223 5.36C46.2823 5.88 46.4623 6.54667 46.4623 7.36V11.82C46.4623 12.3133 46.709 12.56 47.2023 12.56C47.4423 12.56 47.6757 12.5267 47.9023 12.46L47.7823 13.94C47.4757 14.0867 47.089 14.16 46.6223 14.16C46.1957 14.16 45.809 14.0867 45.4623 13.94C45.129 13.78 44.8623 13.5467 44.6623 13.24C44.4757 12.92 44.3823 12.5267 44.3823 12.06V11.92L44.8223 11.9C44.7023 12.42 44.4557 12.8533 44.0823 13.2C43.709 13.5333 43.2757 13.7867 42.7823 13.96C42.289 14.12 41.789 14.2 41.2823 14.2C40.6557 14.2 40.089 14.1 39.5823 13.9C39.089 13.7 38.6957 13.4 38.4023 13C38.1223 12.5867 37.9823 12.08 37.9823 11.48C37.9823 10.7333 38.2223 10.12 38.7023 9.64C39.1957 9.16 39.889 8.83334 40.7823 8.66L44.6623 7.9L44.6423 9.4L41.8223 9.98C41.2623 10.0867 40.8423 10.24 40.5623 10.44C40.2823 10.64 40.1423 10.9333 40.1423 11.32C40.1423 11.6933 40.2823 11.9933 40.5623 12.22C40.8557 12.4333 41.2423 12.54 41.7223 12.54C42.0557 12.54 42.3757 12.5 42.6823 12.42C43.0023 12.34 43.289 12.2133 43.5423 12.04C43.7957 11.8533 43.989 11.62 44.1223 11.34C44.269 11.0467 44.3423 10.7 44.3423 10.3V7.58Z" fill="white"/>
<path d="M49.9686 14V4H51.8686L52.0086 6.6L51.7286 6.32C51.9153 5.74667 52.1819 5.27334 52.5286 4.9C52.8886 4.51334 53.3086 4.23334 53.7886 4.06C54.2819 3.88667 54.8019 3.8 55.3486 3.8C56.0553 3.8 56.6886 3.94 57.2486 4.22C57.8219 4.48667 58.2753 4.89334 58.6086 5.44C58.9419 5.98667 59.1086 6.68 59.1086 7.52V14H56.9686V8.18C56.9686 7.19334 56.7619 6.51334 56.3486 6.14C55.9486 5.75334 55.4419 5.56 54.8286 5.56C54.3886 5.56 53.9619 5.66667 53.5486 5.88C53.1353 6.08 52.7886 6.40667 52.5086 6.86C52.2419 7.31334 52.1086 7.92 52.1086 8.68V14H49.9686Z" fill="white"/>
</g>
<defs>
<filter id="filter0_d_53_18" x="0.0661621" y="0.800003" width="63.0424" height="25.5" filterUnits="userSpaceOnUse" color-interpolation-filters="sRGB">
<feFlood flood-opacity="0" result="BackgroundImageFix"/>
<feColorMatrix in="SourceAlpha" type="matrix" values="0 0 0 0 0 0 0 0 0 0 0 0 0 0 0 0 0 0 127 0" result="hardAlpha"/>
<feOffset dy="4"/>
<feGaussianBlur stdDeviation="2"/>
<feComposite in2="hardAlpha" operator="out"/>
<feColorMatrix type="matrix" values="0 0 0 0 0 0 0 0 0 0 0 0 0 0 0 0 0 0 0.25 0"/>
<feBlend mode="normal" in2="BackgroundImageFix" result="effect1_dropShadow_53_18"/>
<feBlend mode="normal" in="SourceGraphic" in2="effect1_dropShadow_53_18" result="shape"/>
</filter>
</defs>
</svg>
