<svg width="133" height="124" viewBox="0 0 133 124" fill="none" xmlns="http://www.w3.org/2000/svg">
<g filter="url(#filter0_d_27_27)">
<path d="M56.1147 34.2C56.667 34.2 57.1147 34.6477 57.1147 35.2V66.68C57.1147 73.3467 55.1947 78.5467 51.3547 82.28C47.5147 85.96 42.0747 87.8 35.0347 87.8C29.8614 87.8 25.7014 86.8933 22.5547 85.08C19.408 83.2133 17.248 80.6533 16.0747 77.4C14.9667 74.2774 14.691 70.7505 15.2476 66.8193C15.307 66.3997 15.6336 66.0702 16.0508 65.9957L27.4487 63.9604C28.1149 63.8414 28.704 64.4049 28.634 65.078C28.2035 69.2205 28.4704 72.2078 29.4347 74.04C30.5547 76.0133 32.5814 77 35.5147 77C38.3947 77 40.4214 76.04 41.5947 74.12C42.768 72.2 43.3547 69.24 43.3547 65.24V35.2C43.3547 34.6477 43.8024 34.2 44.3547 34.2H56.1147Z" fill="url(#paint0_linear_27_27)"/>
<path d="M92.0878 34.2C96.4078 34.2 100.088 34.8933 103.128 36.28C106.168 37.6667 108.488 39.6667 110.088 42.28C111.688 44.8933 112.488 48.0667 112.488 51.8C112.488 55.5333 111.688 58.7067 110.088 61.32C108.488 63.9333 106.168 65.9333 103.128 67.32C100.088 68.7067 96.4078 69.4 92.0878 69.4H82.6078C82.0555 69.4 81.6078 69.8477 81.6078 70.4V86C81.6078 86.5523 81.1601 87 80.6078 87H68.8478C68.2955 87 67.8478 86.5523 67.8478 86V35.2C67.8478 34.6477 68.2955 34.2 68.8478 34.2H92.0878ZM89.9278 59.08C92.8078 59.08 94.9678 58.4933 96.4078 57.32C97.9011 56.0933 98.6478 54.2533 98.6478 51.8C98.6478 49.3467 97.9011 47.5333 96.4078 46.36C94.9678 45.1333 92.8078 44.52 89.9278 44.52H82.6078C82.0555 44.52 81.6078 44.9677 81.6078 45.52V58.08C81.6078 58.6323 82.0555 59.08 82.6078 59.08H89.9278Z" fill="url(#paint1_linear_27_27)"/>
<path d="M9 63.5C9 64.8807 7.88071 66 6.5 66C5.11929 66 4 64.8807 4 63.5C4 62.1193 5.11929 61 6.5 61C7.88071 61 9 62.1193 9 63.5Z" fill="url(#paint2_linear_27_27)"/>
<path d="M15 89C15 90.6569 13.6569 92 12 92C10.3431 92 9 90.6569 9 89C9 87.3431 10.3431 86 12 86C13.6569 86 15 87.3431 15 89Z" fill="url(#paint3_linear_27_27)"/>
<path d="M34 101.5C34 103.433 32.433 105 30.5 105C28.567 105 27 103.433 27 101.5C27 99.567 28.567 98 30.5 98C32.433 98 34 99.567 34 101.5Z" fill="url(#paint4_linear_27_27)"/>
<path d="M53 111C53 113.209 51.2091 115 49 115C46.7909 115 45 113.209 45 111C45 108.791 46.7909 107 49 107C51.2091 107 53 108.791 53 111Z" fill="url(#paint5_linear_27_27)"/>
<path d="M82 111.5C82 113.985 79.9853 116 77.5 116C75.0147 116 73 113.985 73 111.5C73 109.015 75.0147 107 77.5 107C79.9853 107 82 109.015 82 111.5Z" fill="url(#paint6_linear_27_27)"/>
<path d="M106 100C106 102.761 103.761 105 101 105C98.2386 105 96 102.761 96 100C96 97.2386 98.2386 95 101 95C103.761 95 106 97.2386 106 100Z" fill="url(#paint7_linear_27_27)"/>
<path d="M123 80.5C123 83.5376 120.538 86 117.5 86C114.462 86 112 83.5376 112 80.5C112 77.4624 114.462 75 117.5 75C120.538 75 123 77.4624 123 80.5Z" fill="url(#paint8_linear_27_27)"/>
<path d="M129 47C129 50.3137 126.314 53 123 53C119.686 53 117 50.3137 117 47C117 43.6863 119.686 41 123 41C126.314 41 129 43.6863 129 47Z" fill="url(#paint9_linear_27_27)"/>
<path d="M109 20.5C109 24.0899 106.09 27 102.5 27C98.9101 27 96 24.0899 96 20.5C96 16.9101 98.9101 14 102.5 14C106.09 14 109 16.9101 109 20.5Z" fill="url(#paint10_linear_27_27)"/>
<path d="M82 7C82 10.866 78.866 14 75 14C71.134 14 68 10.866 68 7C68 3.13401 71.134 0 75 0C78.866 0 82 3.13401 82 7Z" fill="url(#paint11_linear_27_27)"/>
<path d="M28.9922 74.2729L28.9959 74.2799L28.9998 74.2868C30.2351 76.4632 32.4623 77.5 35.5147 77.5C38.5131 77.5 40.7315 76.4914 42.0213 74.3807C43.267 72.3423 43.8547 69.27 43.8547 65.24V35.2C43.8547 34.9239 44.0785 34.7 44.3547 34.7H56.1147C56.3908 34.7 56.6147 34.9239 56.6147 35.2V66.68C56.6147 73.2461 54.7271 78.3032 51.0073 81.9204C47.2874 85.4844 41.9878 87.3 35.0347 87.3C29.9156 87.3 25.8523 86.4023 22.8074 84.6486C19.756 82.8378 17.6769 80.3678 16.5455 77.2317C15.4696 74.199 15.1952 70.756 15.7427 66.8894C15.7709 66.69 15.9278 66.5256 16.1387 66.4879L27.5366 64.4526C27.8649 64.3939 28.1734 64.6734 28.1367 65.0263C27.7045 69.1851 27.9546 72.3014 28.9922 74.2729ZM96.7237 57.7076L96.7252 57.7064C98.3642 56.3601 99.1478 54.3592 99.1478 51.8C99.1478 49.246 98.3669 47.2677 96.7245 45.973C95.1574 44.6423 92.8623 44.02 89.9278 44.02H82.6078C81.7794 44.02 81.1078 44.6916 81.1078 45.52V58.08C81.1078 58.9084 81.7794 59.58 82.6078 59.58H89.9278C92.8629 59.58 95.157 58.9842 96.7237 57.7076ZM92.0878 34.7C96.3564 34.7 99.9616 35.3853 102.92 36.7349C105.878 38.0841 108.118 40.0204 109.661 42.5411C111.204 45.0602 111.988 48.1387 111.988 51.8C111.988 55.4613 111.204 58.5397 109.661 61.0589C108.118 63.5796 105.878 65.5159 102.92 66.8651C99.9616 68.2147 96.3564 68.9 92.0878 68.9H82.6078C81.7794 68.9 81.1078 69.5716 81.1078 70.4V86C81.1078 86.2761 80.8839 86.5 80.6078 86.5H68.8478C68.5717 86.5 68.3478 86.2761 68.3478 86V35.2C68.3478 34.9239 68.5717 34.7 68.8478 34.7H92.0878ZM8.5 63.5C8.5 64.6046 7.60457 65.5 6.5 65.5C5.39543 65.5 4.5 64.6046 4.5 63.5C4.5 62.3954 5.39543 61.5 6.5 61.5C7.60457 61.5 8.5 62.3954 8.5 63.5ZM14.5 89C14.5 90.3807 13.3807 91.5 12 91.5C10.6193 91.5 9.5 90.3807 9.5 89C9.5 87.6193 10.6193 86.5 12 86.5C13.3807 86.5 14.5 87.6193 14.5 89ZM33.5 101.5C33.5 103.157 32.1569 104.5 30.5 104.5C28.8431 104.5 27.5 103.157 27.5 101.5C27.5 99.8431 28.8431 98.5 30.5 98.5C32.1569 98.5 33.5 99.8431 33.5 101.5ZM52.5 111C52.5 112.933 50.933 114.5 49 114.5C47.067 114.5 45.5 112.933 45.5 111C45.5 109.067 47.067 107.5 49 107.5C50.933 107.5 52.5 109.067 52.5 111ZM81.5 111.5C81.5 113.709 79.7091 115.5 77.5 115.5C75.2909 115.5 73.5 113.709 73.5 111.5C73.5 109.291 75.2909 107.5 77.5 107.5C79.7091 107.5 81.5 109.291 81.5 111.5ZM105.5 100C105.5 102.485 103.485 104.5 101 104.5C98.5147 104.5 96.5 102.485 96.5 100C96.5 97.5147 98.5147 95.5 101 95.5C103.485 95.5 105.5 97.5147 105.5 100ZM122.5 80.5C122.5 83.2614 120.261 85.5 117.5 85.5C114.739 85.5 112.5 83.2614 112.5 80.5C112.5 77.7386 114.739 75.5 117.5 75.5C120.261 75.5 122.5 77.7386 122.5 80.5ZM128.5 47C128.5 50.0376 126.038 52.5 123 52.5C119.962 52.5 117.5 50.0376 117.5 47C117.5 43.9624 119.962 41.5 123 41.5C126.038 41.5 128.5 43.9624 128.5 47ZM108.5 20.5C108.5 23.8137 105.814 26.5 102.5 26.5C99.1863 26.5 96.5 23.8137 96.5 20.5C96.5 17.1863 99.1863 14.5 102.5 14.5C105.814 14.5 108.5 17.1863 108.5 20.5ZM81.5 7C81.5 10.5899 78.5899 13.5 75 13.5C71.4101 13.5 68.5 10.5899 68.5 7C68.5 3.41015 71.4101 0.5 75 0.5C78.5899 0.5 81.5 3.41015 81.5 7Z" stroke="url(#paint12_linear_27_27)"/>
</g>
<defs>
<filter id="filter0_d_27_27" x="0" y="0" width="133" height="124" filterUnits="userSpaceOnUse" color-interpolation-filters="sRGB">
<feFlood flood-opacity="0" result="BackgroundImageFix"/>
<feColorMatrix in="SourceAlpha" type="matrix" values="0 0 0 0 0 0 0 0 0 0 0 0 0 0 0 0 0 0 127 0" result="hardAlpha"/>
<feOffset dy="4"/>
<feGaussianBlur stdDeviation="2"/>
<feComposite in2="hardAlpha" operator="out"/>
<feColorMatrix type="matrix" values="0 0 0 0 0 0 0 0 0 0 0 0 0 0 0 0 0 0 0.25 0"/>
<feBlend mode="normal" in2="BackgroundImageFix" result="effect1_dropShadow_27_27"/>
<feBlend mode="normal" in="SourceGraphic" in2="effect1_dropShadow_27_27" result="shape"/>
</filter>
<linearGradient id="paint0_linear_27_27" x1="-57" y1="64" x2="185" y2="65" gradientUnits="userSpaceOnUse">
<stop stop-color="#C02626"/>
<stop offset="1" stop-color="#DCEE0E"/>
</linearGradient>
<linearGradient id="paint1_linear_27_27" x1="-57" y1="64" x2="185" y2="65" gradientUnits="userSpaceOnUse">
<stop stop-color="#C02626"/>
<stop offset="1" stop-color="#DCEE0E"/>
</linearGradient>
<linearGradient id="paint2_linear_27_27" x1="-57" y1="64" x2="185" y2="65" gradientUnits="userSpaceOnUse">
<stop stop-color="#C02626"/>
<stop offset="1" stop-color="#DCEE0E"/>
</linearGradient>
<linearGradient id="paint3_linear_27_27" x1="-57" y1="64" x2="185" y2="65" gradientUnits="userSpaceOnUse">
<stop stop-color="#C02626"/>
<stop offset="1" stop-color="#DCEE0E"/>
</linearGradient>
<linearGradient id="paint4_linear_27_27" x1="-57" y1="64" x2="185" y2="65" gradientUnits="userSpaceOnUse">
<stop stop-color="#C02626"/>
<stop offset="1" stop-color="#DCEE0E"/>
</linearGradient>
<linearGradient id="paint5_linear_27_27" x1="-57" y1="64" x2="185" y2="65" gradientUnits="userSpaceOnUse">
<stop stop-color="#C02626"/>
<stop offset="1" stop-color="#DCEE0E"/>
</linearGradient>
<linearGradient id="paint6_linear_27_27" x1="-57" y1="64" x2="185" y2="65" gradientUnits="userSpaceOnUse">
<stop stop-color="#C02626"/>
<stop offset="1" stop-color="#DCEE0E"/>
</linearGradient>
<linearGradient id="paint7_linear_27_27" x1="-57" y1="64" x2="185" y2="65" gradientUnits="userSpaceOnUse">
<stop stop-color="#C02626"/>
<stop offset="1" stop-color="#DCEE0E"/>
</linearGradient>
<linearGradient id="paint8_linear_27_27" x1="-57" y1="64" x2="185" y2="65" gradientUnits="userSpaceOnUse">
<stop stop-color="#C02626"/>
<stop offset="1" stop-color="#DCEE0E"/>
</linearGradient>
<linearGradient id="paint9_linear_27_27" x1="-57" y1="64" x2="185" y2="65" gradientUnits="userSpaceOnUse">
<stop stop-color="#C02626"/>
<stop offset="1" stop-color="#DCEE0E"/>
</linearGradient>
<linearGradient id="paint10_linear_27_27" x1="-57" y1="64" x2="185" y2="65" gradientUnits="userSpaceOnUse">
<stop stop-color="#C02626"/>
<stop offset="1" stop-color="#DCEE0E"/>
</linearGradient>
<linearGradient id="paint11_linear_27_27" x1="-57" y1="64" x2="185" y2="65" gradientUnits="userSpaceOnUse">
<stop stop-color="#C02626"/>
<stop offset="1" stop-color="#DCEE0E"/>
</linearGradient>
<linearGradient id="paint12_linear_27_27" x1="66" y1="-17" x2="66" y2="136" gradientUnits="userSpaceOnUse">
<stop stop-color="#DF3333"/>
<stop offset="1" stop-color="#D3B61F"/>
</linearGradient>
</defs>
</svg>
