<svg width="125" height="116" viewBox="0 0 125 116" fill="none" xmlns="http://www.w3.org/2000/svg">
<path d="M24.9922 74.2729L24.9959 74.2799L24.9998 74.2868C26.2351 76.4632 28.4623 77.5 31.5147 77.5C34.5131 77.5 36.7315 76.4914 38.0213 74.3807C39.267 72.3423 39.8547 69.27 39.8547 65.24V35.2C39.8547 34.9239 40.0785 34.7 40.3547 34.7H52.1147C52.3908 34.7 52.6147 34.9239 52.6147 35.2V66.68C52.6147 73.2461 50.7271 78.3032 47.0073 81.9204C43.2874 85.4844 37.9878 87.3 31.0347 87.3C25.9156 87.3 21.8523 86.4023 18.8074 84.6486C15.756 82.8378 13.6769 80.3678 12.5455 77.2317C11.4696 74.199 11.1952 70.756 11.7427 66.8894C11.7709 66.69 11.9278 66.5256 12.1387 66.4879L23.5366 64.4526C23.8649 64.3939 24.1734 64.6734 24.1367 65.0263C23.7045 69.1851 23.9546 72.3014 24.9922 74.2729ZM92.7237 57.7076L92.7252 57.7064C94.3642 56.3601 95.1478 54.3592 95.1478 51.8C95.1478 49.246 94.3669 47.2677 92.7245 45.973C91.1574 44.6423 88.8623 44.02 85.9278 44.02H78.6078C77.7794 44.02 77.1078 44.6916 77.1078 45.52V58.08C77.1078 58.9084 77.7794 59.58 78.6078 59.58H85.9278C88.8629 59.58 91.157 58.9842 92.7237 57.7076ZM88.0878 34.7C92.3564 34.7 95.9616 35.3853 98.9203 36.7349C101.878 38.0841 104.118 40.0204 105.661 42.5411C107.204 45.0602 107.988 48.1387 107.988 51.8C107.988 55.4613 107.204 58.5397 105.661 61.0589C104.118 63.5796 101.878 65.5159 98.9203 66.8651C95.9616 68.2147 92.3564 68.9 88.0878 68.9H78.6078C77.7794 68.9 77.1078 69.5716 77.1078 70.4V86C77.1078 86.2761 76.8839 86.5 76.6078 86.5H64.8478C64.5717 86.5 64.3478 86.2761 64.3478 86V35.2C64.3478 34.9239 64.5717 34.7 64.8478 34.7H88.0878ZM4.5 63.5C4.5 64.6046 3.60457 65.5 2.5 65.5C1.39543 65.5 0.5 64.6046 0.5 63.5C0.5 62.3954 1.39543 61.5 2.5 61.5C3.60457 61.5 4.5 62.3954 4.5 63.5ZM10.5 89C10.5 90.3807 9.38071 91.5 8 91.5C6.61929 91.5 5.5 90.3807 5.5 89C5.5 87.6193 6.61929 86.5 8 86.5C9.38071 86.5 10.5 87.6193 10.5 89ZM29.5 101.5C29.5 103.157 28.1569 104.5 26.5 104.5C24.8431 104.5 23.5 103.157 23.5 101.5C23.5 99.8431 24.8431 98.5 26.5 98.5C28.1569 98.5 29.5 99.8431 29.5 101.5ZM48.5 111C48.5 112.933 46.933 114.5 45 114.5C43.067 114.5 41.5 112.933 41.5 111C41.5 109.067 43.067 107.5 45 107.5C46.933 107.5 48.5 109.067 48.5 111ZM77.5 111.5C77.5 113.709 75.7091 115.5 73.5 115.5C71.2909 115.5 69.5 113.709 69.5 111.5C69.5 109.291 71.2909 107.5 73.5 107.5C75.7091 107.5 77.5 109.291 77.5 111.5ZM101.5 100C101.5 102.485 99.4853 104.5 97 104.5C94.5147 104.5 92.5 102.485 92.5 100C92.5 97.5147 94.5147 95.5 97 95.5C99.4853 95.5 101.5 97.5147 101.5 100ZM118.5 80.5C118.5 83.2614 116.261 85.5 113.5 85.5C110.739 85.5 108.5 83.2614 108.5 80.5C108.5 77.7386 110.739 75.5 113.5 75.5C116.261 75.5 118.5 77.7386 118.5 80.5ZM124.5 47C124.5 50.0376 122.038 52.5 119 52.5C115.962 52.5 113.5 50.0376 113.5 47C113.5 43.9624 115.962 41.5 119 41.5C122.038 41.5 124.5 43.9624 124.5 47ZM104.5 20.5C104.5 23.8137 101.814 26.5 98.5 26.5C95.1863 26.5 92.5 23.8137 92.5 20.5C92.5 17.1863 95.1863 14.5 98.5 14.5C101.814 14.5 104.5 17.1863 104.5 20.5ZM77.5 7C77.5 10.5899 74.5899 13.5 71 13.5C67.4101 13.5 64.5 10.5899 64.5 7C64.5 3.41015 67.4101 0.5 71 0.5C74.5899 0.5 77.5 3.41015 77.5 7Z" fill="url(#paint0_linear_27_27)" stroke="url(#paint1_linear_27_27)"/>
<defs>
<linearGradient id="paint0_linear_27_27" x1="-61" y1="64" x2="181" y2="65" gradientUnits="userSpaceOnUse">
<stop stop-color="#FF0303"/>
<stop offset="1" stop-color="#EAFF00"/>
</linearGradient>
<linearGradient id="paint1_linear_27_27" x1="62" y1="-17" x2="62" y2="136" gradientUnits="userSpaceOnUse">
<stop stop-color="#FDF8F8"/>
<stop offset="1" stop-color="#D4CCA2"/>
</linearGradient>
</defs>
</svg>
