<svg width="125" height="116" viewBox="0 0 125 116" fill="none" xmlns="http://www.w3.org/2000/svg">
<path d="M52.1147 34.2C52.667 34.2 53.1147 34.6477 53.1147 35.2V66.68C53.1147 73.3467 51.1947 78.5467 47.3547 82.28C43.5147 85.96 38.0747 87.8 31.0347 87.8C25.8614 87.8 21.7014 86.8933 18.5547 85.08C15.408 83.2133 13.248 80.6533 12.0747 77.4C10.9667 74.2774 10.691 70.7505 11.2476 66.8193C11.307 66.3997 11.6336 66.0702 12.0508 65.9957L23.4487 63.9604C24.1149 63.8414 24.704 64.4049 24.634 65.078C24.2035 69.2205 24.4704 72.2078 25.4347 74.04C26.5547 76.0133 28.5814 77 31.5147 77C34.3947 77 36.4214 76.04 37.5947 74.12C38.768 72.2 39.3547 69.24 39.3547 65.24V35.2C39.3547 34.6477 39.8024 34.2 40.3547 34.2H52.1147Z" fill="url(#paint0_linear_27_27)"/>
<path d="M88.0878 34.2C92.4078 34.2 96.0878 34.8933 99.1278 36.28C102.168 37.6667 104.488 39.6667 106.088 42.28C107.688 44.8933 108.488 48.0667 108.488 51.8C108.488 55.5333 107.688 58.7067 106.088 61.32C104.488 63.9333 102.168 65.9333 99.1278 67.32C96.0878 68.7067 92.4078 69.4 88.0878 69.4H78.6078C78.0555 69.4 77.6078 69.8477 77.6078 70.4V86C77.6078 86.5523 77.1601 87 76.6078 87H64.8478C64.2955 87 63.8478 86.5523 63.8478 86V35.2C63.8478 34.6477 64.2955 34.2 64.8478 34.2H88.0878ZM85.9278 59.08C88.8078 59.08 90.9678 58.4933 92.4078 57.32C93.9011 56.0933 94.6478 54.2533 94.6478 51.8C94.6478 49.3467 93.9011 47.5333 92.4078 46.36C90.9678 45.1333 88.8078 44.52 85.9278 44.52H78.6078C78.0555 44.52 77.6078 44.9677 77.6078 45.52V58.08C77.6078 58.6323 78.0555 59.08 78.6078 59.08H85.9278Z" fill="url(#paint1_linear_27_27)"/>
<path d="M5 63.5C5 64.8807 3.88071 66 2.5 66C1.11929 66 0 64.8807 0 63.5C0 62.1193 1.11929 61 2.5 61C3.88071 61 5 62.1193 5 63.5Z" fill="url(#paint2_linear_27_27)"/>
<path d="M11 89C11 90.6569 9.65685 92 8 92C6.34315 92 5 90.6569 5 89C5 87.3431 6.34315 86 8 86C9.65685 86 11 87.3431 11 89Z" fill="url(#paint3_linear_27_27)"/>
<path d="M30 101.5C30 103.433 28.433 105 26.5 105C24.567 105 23 103.433 23 101.5C23 99.567 24.567 98 26.5 98C28.433 98 30 99.567 30 101.5Z" fill="url(#paint4_linear_27_27)"/>
<path d="M49 111C49 113.209 47.2091 115 45 115C42.7909 115 41 113.209 41 111C41 108.791 42.7909 107 45 107C47.2091 107 49 108.791 49 111Z" fill="url(#paint5_linear_27_27)"/>
<path d="M78 111.5C78 113.985 75.9853 116 73.5 116C71.0147 116 69 113.985 69 111.5C69 109.015 71.0147 107 73.5 107C75.9853 107 78 109.015 78 111.5Z" fill="url(#paint6_linear_27_27)"/>
<path d="M102 100C102 102.761 99.7614 105 97 105C94.2386 105 92 102.761 92 100C92 97.2386 94.2386 95 97 95C99.7614 95 102 97.2386 102 100Z" fill="url(#paint7_linear_27_27)"/>
<path d="M119 80.5C119 83.5376 116.538 86 113.5 86C110.462 86 108 83.5376 108 80.5C108 77.4624 110.462 75 113.5 75C116.538 75 119 77.4624 119 80.5Z" fill="url(#paint8_linear_27_27)"/>
<path d="M125 47C125 50.3137 122.314 53 119 53C115.686 53 113 50.3137 113 47C113 43.6863 115.686 41 119 41C122.314 41 125 43.6863 125 47Z" fill="url(#paint9_linear_27_27)"/>
<path d="M105 20.5C105 24.0899 102.09 27 98.5 27C94.9101 27 92 24.0899 92 20.5C92 16.9101 94.9101 14 98.5 14C102.09 14 105 16.9101 105 20.5Z" fill="url(#paint10_linear_27_27)"/>
<path d="M78 7C78 10.866 74.866 14 71 14C67.134 14 64 10.866 64 7C64 3.13401 67.134 0 71 0C74.866 0 78 3.13401 78 7Z" fill="url(#paint11_linear_27_27)"/>
<defs>
<linearGradient id="paint0_linear_27_27" x1="-61" y1="64" x2="181" y2="65" gradientUnits="userSpaceOnUse">
<stop stop-color="#FF0303"/>
<stop offset="1" stop-color="#EAFF00"/>
</linearGradient>
<linearGradient id="paint1_linear_27_27" x1="-61" y1="64" x2="181" y2="65" gradientUnits="userSpaceOnUse">
<stop stop-color="#FF0303"/>
<stop offset="1" stop-color="#EAFF00"/>
</linearGradient>
<linearGradient id="paint2_linear_27_27" x1="-61" y1="64" x2="181" y2="65" gradientUnits="userSpaceOnUse">
<stop stop-color="#FF0303"/>
<stop offset="1" stop-color="#EAFF00"/>
</linearGradient>
<linearGradient id="paint3_linear_27_27" x1="-61" y1="64" x2="181" y2="65" gradientUnits="userSpaceOnUse">
<stop stop-color="#FF0303"/>
<stop offset="1" stop-color="#EAFF00"/>
</linearGradient>
<linearGradient id="paint4_linear_27_27" x1="-61" y1="64" x2="181" y2="65" gradientUnits="userSpaceOnUse">
<stop stop-color="#FF0303"/>
<stop offset="1" stop-color="#EAFF00"/>
</linearGradient>
<linearGradient id="paint5_linear_27_27" x1="-61" y1="64" x2="181" y2="65" gradientUnits="userSpaceOnUse">
<stop stop-color="#FF0303"/>
<stop offset="1" stop-color="#EAFF00"/>
</linearGradient>
<linearGradient id="paint6_linear_27_27" x1="-61" y1="64" x2="181" y2="65" gradientUnits="userSpaceOnUse">
<stop stop-color="#FF0303"/>
<stop offset="1" stop-color="#EAFF00"/>
</linearGradient>
<linearGradient id="paint7_linear_27_27" x1="-61" y1="64" x2="181" y2="65" gradientUnits="userSpaceOnUse">
<stop stop-color="#FF0303"/>
<stop offset="1" stop-color="#EAFF00"/>
</linearGradient>
<linearGradient id="paint8_linear_27_27" x1="-61" y1="64" x2="181" y2="65" gradientUnits="userSpaceOnUse">
<stop stop-color="#FF0303"/>
<stop offset="1" stop-color="#EAFF00"/>
</linearGradient>
<linearGradient id="paint9_linear_27_27" x1="-61" y1="64" x2="181" y2="65" gradientUnits="userSpaceOnUse">
<stop stop-color="#FF0303"/>
<stop offset="1" stop-color="#EAFF00"/>
</linearGradient>
<linearGradient id="paint10_linear_27_27" x1="-61" y1="64" x2="181" y2="65" gradientUnits="userSpaceOnUse">
<stop stop-color="#FF0303"/>
<stop offset="1" stop-color="#EAFF00"/>
</linearGradient>
<linearGradient id="paint11_linear_27_27" x1="-61" y1="64" x2="181" y2="65" gradientUnits="userSpaceOnUse">
<stop stop-color="#FF0303"/>
<stop offset="1" stop-color="#EAFF00"/>
</linearGradient>
</defs>
</svg>
